<svg width="32" height="32" fill="none" xmlns="http://www.w3.org/2000/svg"><path fill-rule="evenodd" clip-rule="evenodd" d="M31.925 17.52c.048-.5.072-1.008.072-1.522C31.997 7.163 24.834 0 15.998 0 7.736 0 .937 6.263.09 14.3c.104-.96.293-1.908.566-2.831 3.924.574 7.771 3.245 10.044 7.43 2.266 4.174 2.415 8.842.774 12.443a15.979 15.979 0 01-2.924-1.185c1.092-3.16 1.249-7.032-.856-10.41-1.812-2.906-4.771-4.619-7.612-5.37A16.187 16.187 0 000 15.998c0 8.836 7.163 15.999 15.998 15.999 8.304 0 15.13-6.325 15.922-14.42a15.935 15.935 0 01-.534 2.798c-3.835-.65-7.567-3.296-9.79-7.392-2.23-4.106-2.411-8.69-.854-12.265.941.293 1.855.67 2.73 1.132-.918 2.765-1.106 6.138.301 9.22 1.644 3.6 4.932 5.607 8.152 6.45z" fill="url(#paint0_linear)"/><path d="M23.63 30.056c-7.138 3.875-15.922 1.757-20.567-4.642 4.894 4.355 12.182 5.411 18.271 2.105 7.766-4.216 10.643-13.928 6.427-21.693a16.042 16.042 0 00-1.126-1.784 15.967 15.967 0 013.422 4.321c4.216 7.765 1.338 17.477-6.427 21.693z" fill="#000" fill-opacity=".1"/><defs><linearGradient id="paint0_linear" x1="15.998" y1="0" x2="15.998" y2="31.997" gradientUnits="userSpaceOnUse"><stop stop-color="#F25A3C"/><stop offset=".172" stop-color="#FF7A00"/><stop offset=".542" stop-color="#08A61A"/><stop offset="1" stop-color="#FFC700"/></linearGradient></defs></svg>