<svg width="31" height="30" fill="none" xmlns="http://www.w3.org/2000/svg"><path d="M17.45 1.265l2.95 6.24c.317.67.93 1.134 1.638 1.242l6.598 1c1.783.27 2.495 2.558 1.205 3.87l-4.775 4.858a2.33 2.33 0 00-.625 2.008l1.127 6.86c.305 1.853-1.56 3.267-3.154 2.391l-5.902-3.238a2.094 2.094 0 00-2.024 0l-5.902 3.238c-1.595.875-3.459-.538-3.154-2.392l1.127-6.859a2.33 2.33 0 00-.625-2.008l-4.775-4.857c-1.29-1.313-.578-3.6 1.205-3.87l6.599-1.001A2.183 2.183 0 0010.6 7.505l2.95-6.24a2.135 2.135 0 013.9 0z" fill="#08A61A"/></svg>